<?xml version="1.0" standalone="no"?>
<!DOCTYPE svg PUBLIC "-//W3C//DTD SVG 20010904//EN"
 "http://www.w3.org/TR/2001/REC-SVG-20010904/DTD/svg10.dtd">
<svg version="1.0" xmlns="http://www.w3.org/2000/svg"
 width="450.000000pt" height="450.000000pt" viewBox="0 0 450.000000 450.000000"
 preserveAspectRatio="xMidYMid meet">
<metadata>
Created by potrace 1.11, written by Peter Selinger 2001-2013
</metadata>
<g transform="translate(0.000000,450.000000) scale(0.100000,-0.100000)"
fill="#000000" stroke="none">
<path d="M2308 3862 c-15 -9 -65 -75 -111 -147 -46 -71 -137 -213 -202 -315
-65 -102 -140 -219 -166 -260 -26 -41 -85 -133 -132 -205 -46 -71 -126 -195
-177 -275 -51 -80 -117 -181 -145 -225 -155 -237 -295 -456 -295 -461 0 -3
-17 -31 -39 -62 -40 -59 -142 -216 -203 -312 -56 -89 -301 -469 -437 -680 -69
-107 -129 -196 -133 -198 -17 -8 -6 -37 25 -67 l33 -32 573 -6 c316 -4 1189
-7 1940 -7 1321 1 1367 1 1389 19 21 19 32 75 14 83 -4 2 -30 41 -56 88 -75
130 -175 299 -213 357 -18 29 -33 55 -33 57 0 5 -134 235 -193 331 -16 28 -44
75 -62 105 -17 30 -78 134 -135 230 -56 96 -110 189 -120 205 -9 17 -60 102
-112 190 -52 88 -106 180 -120 205 -25 44 -61 104 -133 225 -86 143 -169 283
-189 320 -11 22 -42 74 -67 115 -50 82 -141 235 -172 290 -10 19 -39 68 -63
107 -24 40 -44 75 -44 78 0 3 -15 29 -34 58 -18 28 -46 75 -61 102 -29 50 -76
105 -92 105 -4 0 -20 -8 -35 -18z m51 -219 c7 -16 42 -77 78 -138 36 -60 89
-150 118 -200 29 -49 105 -178 168 -285 63 -107 124 -211 135 -230 10 -19 70
-120 132 -225 98 -164 275 -465 330 -560 9 -16 58 -99 109 -183 50 -84 91
-155 91 -157 0 -2 29 -52 65 -110 36 -59 65 -109 65 -111 0 -2 17 -33 38 -67
22 -34 72 -118 112 -187 40 -69 89 -152 108 -185 20 -33 62 -103 93 -155 32
-52 55 -99 52 -104 -7 -11 -3574 1 -3585 12 -4 4 39 78 95 164 206 319 262
406 352 548 50 80 125 197 166 260 42 63 203 315 360 558 156 244 324 505 373
580 116 178 132 204 268 417 216 337 248 385 256 385 5 0 14 -12 21 -27z"/>
</g>
</svg>
